<svg height="496pt" viewBox="-96 0 496 496" width="496pt" xmlns="http://www.w3.org/2000/svg"><g fill="#231f20"><path d="m264 0h-224c-22.082031.0273438-39.9726562 17.917969-40 40v416c.0273438 22.082031 17.917969 39.972656 40 40h224c22.082031-.027344 39.972656-17.917969 40-40v-416c-.027344-22.082031-17.917969-39.9726562-40-40zm-51.816406 16-9.597656 24h-101.171876l-9.597656-24zm75.816406 440c0 13.253906-10.746094 24-24 24h-224c-13.253906 0-24-10.746094-24-24v-416c0-13.253906 10.746094-24 24-24h34.585938l13.980468 34.976562c1.21875 3.035157 4.160156 5.027344 7.433594 5.023438h112c3.273438.003906 6.214844-1.988281 7.433594-5.023438l13.980468-34.976562h34.585938c13.253906 0 24 10.746094 24 24zm0 0"/><path d="m224 448h-72c-4.417969 0-8 3.582031-8 8s3.582031 8 8 8h72c4.417969 0 8-3.582031 8-8s-3.582031-8-8-8zm0 0"/><path d="m256 448h-8c-4.417969 0-8 3.582031-8 8s3.582031 8 8 8h8c4.417969 0 8-3.582031 8-8s-3.582031-8-8-8zm0 0"/></g></svg>